<svg width="27" height="28" viewBox="0 0 27 28" fill="none" xmlns="http://www.w3.org/2000/svg">
<g id="Frame">
<path id="Vector" d="M4.90851 24.3898V23.0007C4.90851 22.4681 4.5843 22.1209 4.02859 22.1209C3.75078 22.1209 3.44977 22.2135 3.24137 22.5145C3.07937 22.2598 2.84786 22.1209 2.50056 22.1209C2.26895 22.1209 2.03755 22.1903 1.85224 22.445V22.1672H1.36603V24.3898H1.85224V23.1627C1.85224 22.7692 2.06065 22.5839 2.38486 22.5839C2.70886 22.5839 2.87107 22.7923 2.87107 23.1627V24.3898H3.35728V23.1627C3.35728 22.7692 3.58868 22.5839 3.88968 22.5839C4.2139 22.5839 4.3759 22.7923 4.3759 23.1627V24.3898H4.90851ZM12.109 22.1672H11.3219V21.4958H10.8356V22.1672H10.3957V22.607H10.8355V23.6258C10.8355 24.1352 11.0439 24.4361 11.5997 24.4361C11.8081 24.4361 12.0395 24.3667 12.2017 24.2741L12.0627 23.8573C11.9238 23.9499 11.7618 23.9731 11.646 23.9731C11.4145 23.9731 11.3219 23.8342 11.3219 23.6026V22.607H12.109V22.1672ZM16.2303 22.1208C15.9525 22.1208 15.7673 22.2598 15.6515 22.445V22.1672H15.1652V24.3898H15.6515V23.1396C15.6515 22.7692 15.8135 22.5608 16.1145 22.5608C16.2071 22.5608 16.3229 22.584 16.4155 22.6071L16.5544 22.1441C16.4618 22.1209 16.3229 22.1209 16.2303 22.1209V22.1208ZM10.0021 22.3524C9.77052 22.1903 9.44641 22.1209 9.0991 22.1209C8.54349 22.1209 8.17309 22.3987 8.17309 22.8386C8.17309 23.2091 8.45089 23.4174 8.9371 23.4869L9.16861 23.5101C9.42331 23.5563 9.56222 23.6258 9.56222 23.7416C9.56222 23.9036 9.37701 24.0194 9.0528 24.0194C8.7287 24.0194 8.47399 23.9036 8.31188 23.7879L8.08038 24.1583C8.33509 24.3435 8.6824 24.4361 9.0296 24.4361C9.67791 24.4361 10.0484 24.1352 10.0484 23.7184C10.0484 23.3248 9.74742 23.1164 9.2843 23.047L9.0528 23.0238C8.8444 23.0006 8.68239 22.9544 8.68239 22.8155C8.68239 22.6534 8.8444 22.5608 9.0991 22.5608C9.37701 22.5608 9.65482 22.6765 9.79372 22.746L10.0021 22.3524ZM22.9215 22.1209C22.6436 22.1209 22.4584 22.2598 22.3426 22.445V22.1672H21.8564V24.3898H22.3426V23.1396C22.3426 22.7692 22.5047 22.5608 22.8056 22.5608C22.8983 22.5608 23.0141 22.584 23.1067 22.6071L23.2456 22.1441C23.153 22.1209 23.0141 22.1209 22.9215 22.1209ZM16.7165 23.2785C16.7165 23.9499 17.1795 24.4361 17.8973 24.4361C18.2214 24.4361 18.4529 24.3667 18.6844 24.1815L18.4529 23.7879C18.2677 23.9268 18.0825 23.9962 17.8741 23.9962C17.4805 23.9962 17.2027 23.7184 17.2027 23.2785C17.2027 22.8618 17.4805 22.5839 17.8741 22.5608C18.0825 22.5608 18.2677 22.6302 18.4529 22.7692L18.6844 22.3756C18.4529 22.1903 18.2214 22.1209 17.8973 22.1209C17.1795 22.1209 16.7165 22.6071 16.7165 23.2785ZM21.2082 23.2785V22.1672H20.722V22.445C20.5599 22.2367 20.3284 22.1209 20.0274 22.1209C19.4022 22.1209 18.916 22.6071 18.916 23.2785C18.916 23.9499 19.4022 24.4361 20.0274 24.4361C20.3515 24.4361 20.5831 24.3204 20.722 24.112V24.3898H21.2082V23.2785ZM19.4253 23.2785C19.4253 22.8849 19.68 22.5608 20.0968 22.5608C20.4904 22.5608 20.7683 22.8618 20.7683 23.2785C20.7683 23.6721 20.4904 23.9962 20.0968 23.9962C19.68 23.973 19.4253 23.6721 19.4253 23.2785ZM13.614 22.1209C12.9657 22.1209 12.5026 22.5839 12.5026 23.2785C12.5026 23.9731 12.9656 24.4361 13.6371 24.4361C13.9612 24.4361 14.2854 24.3435 14.5401 24.1352L14.3085 23.7879C14.1233 23.9268 13.8918 24.0194 13.6603 24.0194C13.3593 24.0194 13.0583 23.8805 12.9888 23.4868H14.6327V23.3017C14.6559 22.5839 14.2392 22.1209 13.614 22.1209ZM13.614 22.5376C13.9149 22.5376 14.1234 22.7229 14.1696 23.0702H13.012C13.0583 22.7692 13.2667 22.5376 13.614 22.5376ZM25.6767 23.2785V21.2874H25.1905V22.445C25.0284 22.2367 24.7969 22.1209 24.4959 22.1209C23.8707 22.1209 23.3845 22.6071 23.3845 23.2785C23.3845 23.9499 23.8707 24.4361 24.4959 24.4361C24.8201 24.4361 25.0516 24.3204 25.1905 24.112V24.3898H25.6767V23.2785ZM23.8939 23.2785C23.8939 22.8849 24.1485 22.5608 24.5654 22.5608C24.959 22.5608 25.2368 22.8618 25.2368 23.2785C25.2368 23.6721 24.959 23.9962 24.5654 23.9962C24.1485 23.973 23.8939 23.6721 23.8939 23.2785ZM7.64047 23.2785V22.1672H7.15426V22.445C6.99215 22.2367 6.76065 22.1209 6.45964 22.1209C5.83453 22.1209 5.34832 22.6071 5.34832 23.2785C5.34832 23.9499 5.83453 24.4361 6.45964 24.4361C6.78385 24.4361 7.01536 24.3204 7.15426 24.112V24.3898H7.64047V23.2785ZM5.83453 23.2785C5.83453 22.8849 6.08923 22.5608 6.50594 22.5608C6.89955 22.5608 7.17746 22.8618 7.17746 23.2785C7.17746 23.6721 6.89955 23.9962 6.50594 23.9962C6.08923 23.973 5.83453 23.6721 5.83453 23.2785Z" fill="black"/>
<path id="Vector_2" d="M9.84003 5.28857H17.1332V18.3932H9.84003V5.28857Z" fill="#FF5F00"/>
<path id="Vector_3" d="M10.3031 11.8409C10.3031 9.17839 11.5534 6.81673 13.475 5.2886C12.0628 4.17727 10.28 3.50586 8.33519 3.50586C3.72758 3.50586 0 7.23344 0 11.8409C0 16.4484 3.72758 20.176 8.33509 20.176C10.2799 20.176 12.0627 19.5046 13.475 18.3932C11.5534 16.8883 10.3031 14.5035 10.3031 11.8409Z" fill="#EB001B"/>
<path id="Vector_4" d="M26.9732 11.8409C26.9732 16.4484 23.2457 20.176 18.6381 20.176C16.6933 20.176 14.9106 19.5046 13.4982 18.3932C15.4431 16.8652 16.6702 14.5035 16.6702 11.8409C16.6702 9.17839 15.4199 6.81673 13.4982 5.2886C14.9105 4.17727 16.6933 3.50586 18.6381 3.50586C23.2457 3.50586 26.9732 7.25664 26.9732 11.8409Z" fill="#F79E1B"/>
</g>
</svg>
