<svg width="27" height="28" viewBox="0 0 27 28" fill="none" xmlns="http://www.w3.org/2000/svg">
<g id="Frame" clip-path="url(#clip0_10_194)">
<path id="Vector" d="M21.4719 2.60166C20.2262 1.18175 17.9743 0.572998 15.0934 0.572998H6.73236C6.44732 0.573009 6.17164 0.674699 5.95488 0.859785C5.73811 1.04487 5.59448 1.30122 5.54981 1.58273L2.06842 23.6626C1.99922 24.098 2.33637 24.4922 2.77766 24.4922H7.93949L9.23585 16.2697L9.19562 16.5271C9.28797 15.9459 9.78506 15.5172 10.3737 15.5172H12.8266C17.6453 15.5172 21.4184 13.56 22.5206 7.89813C22.5533 7.73068 22.5816 7.5677 22.6061 7.40847C22.467 7.3348 22.467 7.3348 22.6061 7.40847C22.9343 5.31579 22.6039 3.89132 21.4719 2.60166Z" fill="#27346A"/>
<path id="Vector_2" d="M11.211 6.65461C11.3521 6.58742 11.5064 6.5526 11.6627 6.55269H18.2176C18.9938 6.55269 19.7178 6.60321 20.3794 6.70969C20.5646 6.7392 20.7487 6.77445 20.9317 6.81536C21.191 6.87258 21.4473 6.94261 21.6997 7.02519C22.0249 7.13382 22.3278 7.26033 22.6062 7.40847C22.9343 5.31498 22.6039 3.89132 21.4719 2.60166C20.2255 1.18175 17.9743 0.572998 15.0934 0.572998H6.73164C6.14292 0.572998 5.64208 1.0016 5.54981 1.58273L2.06842 23.6618C1.99922 24.0979 2.33637 24.4916 2.77695 24.4916H7.93949L10.629 7.436C10.6555 7.26836 10.7223 7.10965 10.8236 6.97354C10.925 6.83742 11.0579 6.72798 11.211 6.65461Z" fill="#27346A"/>
<path id="Vector_3" d="M22.5206 7.89811C21.4184 13.5592 17.6454 15.5172 12.8266 15.5172H10.373C9.78437 15.5172 9.2872 15.9459 9.19574 16.5271L7.58298 26.7509C7.52272 27.1319 7.81739 27.4772 8.2029 27.4772H12.5542C12.8035 27.4772 13.0445 27.3882 13.234 27.2262C13.4235 27.0643 13.549 26.8401 13.588 26.5939L13.6304 26.3722L14.4505 21.1746L14.5033 20.8873C14.5422 20.6412 14.6677 20.417 14.8572 20.255C15.0467 20.0931 15.2877 20.0041 15.537 20.004H16.1882C20.4033 20.004 23.7039 18.2916 24.6683 13.339C25.0709 11.2693 24.8626 9.54127 23.7976 8.32752C23.4746 7.95989 23.0735 7.65628 22.6062 7.40845C22.5809 7.56848 22.5534 7.73066 22.5206 7.89811Z" fill="#2790C3"/>
<path id="Vector_4" d="M21.4527 6.94846C21.2808 6.89828 21.1073 6.85385 20.9325 6.81525C20.7495 6.77501 20.5653 6.74 20.3803 6.71029C19.7179 6.6031 18.9945 6.55249 18.2176 6.55249H11.6635C11.507 6.55214 11.3526 6.58726 11.2117 6.65522C11.0585 6.72836 10.9254 6.83774 10.824 6.97389C10.7226 7.11005 10.6559 7.26887 10.6297 7.43661L9.23658 16.2695L9.19635 16.527C9.28799 15.9458 9.78508 15.5171 10.3738 15.5171H12.8274C17.6461 15.5171 21.4191 13.5599 22.5213 7.89802C22.5541 7.73057 22.5816 7.5683 22.6069 7.40836C22.3278 7.26102 22.0257 7.13371 21.7004 7.0258C21.6183 6.99858 21.5357 6.9728 21.4527 6.94846" fill="#1F264F"/>
</g>
<defs>
<clipPath id="clip0_10_194">
<rect width="27" height="27" fill="white" transform="translate(0 0.5)"/>
</clipPath>
</defs>
</svg>
