<svg width="37" height="36" viewBox="0 0 37 36" fill="none" xmlns="http://www.w3.org/2000/svg">
<g id="User Profile">
<path id="Vector" d="M18.5 18C23.4711 18 27.5 13.9711 27.5 9C27.5 4.02891 23.4711 0 18.5 0C13.5289 0 9.5 4.02891 9.5 9C9.5 13.9711 13.5289 18 18.5 18ZM24.8 20.25H23.6258C22.0648 20.9672 20.3281 21.375 18.5 21.375C16.6719 21.375 14.9422 20.9672 13.3742 20.25H12.2C6.98281 20.25 2.75 24.4828 2.75 29.7V32.625C2.75 34.4883 4.26172 36 6.125 36H30.875C32.7383 36 34.25 34.4883 34.25 32.625V29.7C34.25 24.4828 30.0172 20.25 24.8 20.25Z" fill="black"/>
</g>
</svg>
