<svg width="31" height="25" viewBox="0 0 31 25" fill="none" xmlns="http://www.w3.org/2000/svg">
<path id="Vector" d="M30.6 4.39C30.5068 4.26898 30.3872 4.17091 30.2503 4.10331C30.1133 4.0357 29.9627 4.00036 29.81 4H6.70999L6.25999 2.57C6.21056 2.41645 6.12472 2.27715 6.00979 2.16396C5.89487 2.05078 5.75427 1.96708 5.59999 1.92L1.49999 0.659996C1.37392 0.621256 1.24145 0.607726 1.11016 0.620179C0.978859 0.632633 0.8513 0.670825 0.734762 0.732576C0.499404 0.857288 0.323227 1.07039 0.244988 1.325C0.166749 1.5796 0.192858 1.85486 0.317569 2.09022C0.442281 2.32558 0.655381 2.50176 0.909989 2.58L4.49999 3.68L9.07999 18.15L7.44999 19.49L7.31999 19.62C6.91689 20.0868 6.6885 20.6791 6.67391 21.2957C6.65932 21.9122 6.85942 22.5147 7.23999 23C7.51255 23.3315 7.8589 23.5945 8.25133 23.7682C8.64376 23.9418 9.07138 24.0212 9.49999 24H26.19C26.4552 24 26.7096 23.8946 26.8971 23.7071C27.0846 23.5196 27.19 23.2652 27.19 23C27.19 22.7348 27.0846 22.4804 26.8971 22.2929C26.7096 22.1054 26.4552 22 26.19 22H9.33999C9.22484 21.9961 9.11264 21.9625 9.01425 21.9025C8.91585 21.8426 8.83458 21.7583 8.77828 21.6578C8.72199 21.5572 8.69257 21.4439 8.69286 21.3286C8.69316 21.2134 8.72317 21.1002 8.77999 21L11.19 19H26.62C26.8484 19.0067 27.0722 18.9349 27.2542 18.7966C27.4361 18.6583 27.5652 18.4619 27.62 18.24L30.82 5.24C30.8504 5.09091 30.8464 4.93686 30.8083 4.78956C30.7701 4.64226 30.6989 4.5056 30.6 4.39Z" fill="black"/>
</svg>
