<svg width="27" height="28" viewBox="0 0 27 28" fill="none" xmlns="http://www.w3.org/2000/svg">
<g id="Frame">
<path id="Vector" d="M10.2512 8.14227L6.71625 16.5753H4.41007L2.67047 9.84495C2.565 9.43141 2.47335 9.27922 2.15241 9.10435C1.6278 8.81937 0.761484 8.55286 0 8.38706L0.0513633 8.14227H3.76429C4.23679 8.14227 4.66225 8.45688 4.77046 9.00162L5.68962 13.882L7.95888 8.14227H10.2512ZM13.3689 8.14227L11.5651 16.5753H9.38313L11.1872 8.14227H13.3689ZM19.2874 13.822C19.2965 11.5967 16.2104 11.4732 16.2306 10.4789C16.238 10.1767 16.5259 9.85487 17.1562 9.7726C17.4684 9.73221 18.3309 9.70004 19.3078 10.1502L19.6901 8.3608C19.1651 8.17095 18.4896 7.98828 17.6494 7.98828C15.4925 7.98828 13.9753 9.13388 13.9632 10.7756C13.9491 11.99 15.0469 12.6668 15.8725 13.0712C16.7229 13.4843 17.0081 13.7497 17.0042 14.1189C16.9981 14.6847 16.325 14.9352 15.6992 14.9445C14.6019 14.9619 13.9659 14.6479 13.4584 14.4115L13.0624 16.2602C13.5729 16.4941 14.5137 16.6974 15.4881 16.7077C17.781 16.7077 19.2806 15.5752 19.2874 13.822ZM24.9827 16.5753H27L25.2376 8.14227H23.3764C22.9566 8.14227 22.6039 8.3859 22.4473 8.76042L19.1736 16.5753H21.4647L21.9191 15.3156H24.7183L24.9827 16.5753ZM22.5474 13.5875L23.6962 10.4206L24.3561 13.5875H22.5473H22.5474ZM16.1613 18.8966H15.2747V19.7217H16.2663V19.9697H14.976V17.6809H16.2155V17.9289H15.2747V18.6521H16.1612V18.8968L16.1613 18.8966ZM16.7244 17.5586H17.0231V19.9696H16.7244V17.5586ZM17.7768 19.2021C17.7835 19.6064 18.0383 19.7727 18.3404 19.7727C18.5545 19.7727 18.6868 19.7354 18.7957 19.6879L18.8499 19.9019C18.7446 19.9494 18.5613 20.0071 18.2997 20.0071C17.7938 20.0071 17.4917 19.6709 17.4917 19.175C17.4917 18.6793 17.7835 18.2921 18.2624 18.2921C18.8024 18.2921 18.9417 18.7609 18.9417 19.063C18.9417 19.1241 18.9382 19.1682 18.9313 19.2022L17.7768 19.2021ZM18.6529 18.9882C18.6564 18.8016 18.5748 18.506 18.2386 18.506C17.933 18.506 17.8039 18.7811 17.78 18.9882H18.6529ZM20.5676 19.9119C20.4895 19.9494 20.3162 20.0072 20.0956 20.0072C19.5998 20.0072 19.2772 19.6709 19.2772 19.1683C19.2772 18.6622 19.6234 18.2922 20.16 18.2922C20.3366 18.2922 20.4928 18.3361 20.5743 18.3804L20.5066 18.6079C20.435 18.5706 20.323 18.5297 20.16 18.5297C19.783 18.5297 19.5794 18.8116 19.5794 19.1514C19.5794 19.5316 19.8239 19.766 20.1499 19.766C20.3197 19.766 20.4317 19.7253 20.5166 19.6879L20.5676 19.9119ZM21.4058 17.9321V18.326H21.8336V18.5534H21.4058V19.4399C21.4058 19.6438 21.4636 19.7591 21.63 19.7591C21.7114 19.7591 21.759 19.7525 21.8032 19.7387L21.8168 19.9665C21.759 19.9867 21.6674 20.0071 21.5519 20.0071C21.4126 20.0071 21.3005 19.9595 21.2293 19.8816C21.1478 19.7897 21.1138 19.6438 21.1138 19.4502V18.5534H20.859V18.326H21.1138V18.0205L21.4059 17.9322L21.4058 17.9321ZM22.251 18.8389C22.251 18.6453 22.2474 18.4789 22.2373 18.326H22.4989L22.5126 18.6519H22.5225C22.5974 18.4314 22.7806 18.2921 22.9809 18.2921C23.0116 18.2921 23.0354 18.2955 23.0626 18.2988V18.5808C23.0321 18.5739 23.0016 18.5739 22.9605 18.5739C22.7502 18.5739 22.6006 18.7301 22.56 18.9544C22.553 19.0005 22.5495 19.047 22.5497 19.0936V19.9698H22.251V18.8389ZM24.8994 19.1342C24.8994 19.7421 24.4748 20.0071 24.0809 20.0071C23.6393 20.0071 23.2931 19.681 23.2931 19.1615C23.2931 18.6147 23.6564 18.2922 24.1082 18.2922C24.5801 18.2922 24.8994 18.6348 24.8994 19.1342ZM23.5986 19.1513C23.5986 19.5113 23.8024 19.7831 24.0944 19.7831C24.3798 19.7831 24.5936 19.5145 24.5936 19.1444C24.5936 18.866 24.4544 18.5161 24.1012 18.5161C23.7516 18.5161 23.5986 18.8423 23.5986 19.1513ZM25.3573 18.7709C25.3573 18.5978 25.3537 18.4619 25.3436 18.3261H25.6086L25.6255 18.5978H25.6323C25.7138 18.4449 25.904 18.2922 26.1757 18.2922C26.403 18.2922 26.7564 18.428 26.7564 18.9915V19.9697H26.4576V19.0222C26.4576 18.7575 26.3591 18.5365 26.0773 18.5365C25.8836 18.5365 25.7307 18.6759 25.6766 18.8422C25.6629 18.8796 25.6561 18.9305 25.6561 18.9815V19.9697H25.3573V18.7709Z" fill="#1A1F71"/>
</g>
</svg>
