<svg width="28" height="27" viewBox="0 0 28 27" fill="none" xmlns="http://www.w3.org/2000/svg">
<path id="Vector" d="M3.50651 0.543487C3.12264 0.185791 2.61491 -0.0089407 2.0903 0.000315488C1.56569 0.00957167 1.06515 0.222093 0.694133 0.593109C0.323118 0.964124 0.110596 1.46466 0.10134 1.98928C0.0920834 2.51389 0.286815 3.02162 0.644511 3.40549L10.6885 13.4495L0.644511 23.4935C0.445557 23.6789 0.285981 23.9024 0.175303 24.1508C0.0646246 24.3992 0.00511247 24.6674 0.000315151 24.9393C-0.00448217 25.2112 0.0455337 25.4813 0.14738 25.7334C0.249227 25.9855 0.400818 26.2146 0.593108 26.4069C0.785399 26.5992 1.01445 26.7508 1.2666 26.8526C1.51875 26.9545 1.78883 27.0045 2.06072 26.9997C2.33262 26.9949 2.60077 26.9354 2.84916 26.8247C3.09756 26.714 3.32112 26.5544 3.50651 26.3555L13.5505 16.3115L23.5945 26.3555C23.7799 26.5544 24.0035 26.714 24.2519 26.8247C24.5003 26.9354 24.7684 26.9949 25.0403 26.9997C25.3122 27.0045 25.5823 26.9545 25.8344 26.8526C26.0866 26.7508 26.3156 26.5992 26.5079 26.4069C26.7002 26.2146 26.8518 25.9855 26.9536 25.7334C27.0555 25.4813 27.1055 25.2112 27.1007 24.9393C27.0959 24.6674 27.0364 24.3992 26.9257 24.1508C26.815 23.9024 26.6555 23.6789 26.4565 23.4935L16.4125 13.4495L26.4565 3.40549C26.8142 3.02162 27.0089 2.51389 26.9997 1.98928C26.9904 1.46466 26.7779 0.964124 26.4069 0.593109C26.0359 0.222093 25.5353 0.00957167 25.0107 0.000315488C24.4861 -0.0089407 23.9784 0.185791 23.5945 0.543487L13.5505 10.5875L3.50651 0.543487Z" fill="black"/>
</svg>
